<?xml version="1.0" standalone="no"?>
<!DOCTYPE svg PUBLIC "-//W3C//DTD SVG 20010904//EN"
 "http://www.w3.org/TR/2001/REC-SVG-20010904/DTD/svg10.dtd">
<svg version="1.0" xmlns="http://www.w3.org/2000/svg"
 width="122.000000pt" height="163.000000pt" viewBox="0 0 122.000000 163.000000"
 preserveAspectRatio="xMidYMid meet">

<g transform="translate(0.000000,163.000000) scale(0.100000,-0.100000)"
fill="#000000" stroke="none">
<path d="M595 1578 c-10 -40 1 -172 15 -195 17 -27 9 -38 -17 -25 -14 8 -35 4
-83 -15 -78 -30 -109 -58 -114 -100 -7 -49 27 -160 72 -243 42 -75 51 -113 31
-125 -15 -10 -43 19 -58 62 -8 21 -24 61 -36 88 -14 31 -26 82 -30 135 -4 47
-9 88 -12 92 -2 4 -26 -5 -53 -20 -54 -30 -69 -26 -51 15 11 23 10 29 -3 39
-9 6 -14 18 -11 25 4 13 -21 57 -28 48 -5 -5 9 -118 18 -145 6 -18 0 -24 -34
-38 -39 -15 -41 -18 -41 -61 0 -34 -5 -47 -20 -55 -17 -9 -22 -7 -31 14 -8 18
-23 26 -60 33 -47 10 -49 9 -49 -12 0 -22 33 -65 50 -65 6 0 10 -18 10 -39 0
-25 5 -41 15 -45 19 -7 19 -36 0 -36 -8 0 -15 -5 -15 -11 0 -5 4 -7 10 -4 5 3
19 1 31 -6 l22 -11 -24 -19 -24 -19 28 0 c22 0 27 -5 27 -24 0 -14 11 -33 25
-44 14 -11 25 -25 25 -31 0 -6 5 -11 11 -11 7 0 9 -9 6 -22 -7 -26 36 -77 48
-58 11 18 30 -5 60 -75 29 -66 40 -74 75 -53 15 10 22 9 38 -5 25 -23 32 -21
32 8 0 14 9 43 20 65 11 22 20 45 20 51 0 7 -8 5 -20 -6 -24 -22 -25 -17 -4
35 17 42 33 50 54 25 9 -11 7 -30 -15 -94 -14 -44 -33 -85 -41 -91 -8 -7 -14
-20 -14 -30 0 -9 -9 -27 -20 -40 -11 -13 -20 -26 -20 -30 0 -3 14 -25 31 -48
35 -48 34 -62 -2 -33 l-24 18 -1 -27 c-1 -21 5 -29 28 -38 15 -5 28 -17 28
-25 0 -7 11 -19 25 -25 18 -8 25 -8 25 -1 0 8 5 7 15 -1 14 -11 13 -15 -5 -27
-15 -10 -19 -21 -14 -35 3 -12 1 -24 -6 -28 -8 -5 -7 -11 4 -22 8 -9 12 -18 9
-21 -12 -13 28 -57 52 -57 29 0 41 16 25 34 -19 24 -20 56 -2 63 23 9 32 23
32 54 0 21 6 28 26 33 15 4 24 10 20 13 -9 9 46 53 67 53 9 0 17 7 17 15 0 8
8 15 19 15 11 0 21 9 24 21 4 15 11 20 23 15 9 -3 23 -1 30 5 8 6 20 9 28 6
15 -6 33 9 35 28 1 6 18 10 38 10 20 0 38 6 40 13 3 7 -5 12 -21 12 -40 0 -45
29 -10 57 16 12 35 23 43 23 11 0 10 4 -3 19 -17 18 -16 20 23 52 47 37 53 54
16 45 -39 -10 -31 20 10 40 39 18 46 34 15 34 -24 0 -16 27 11 35 10 4 19 10
19 15 0 5 -7 7 -15 4 -9 -4 -15 0 -15 10 0 9 5 16 10 16 6 0 10 5 10 10 0 6
-9 10 -20 10 -11 0 -20 7 -20 15 0 8 9 19 20 25 26 14 27 40 1 33 -44 -11 -30
45 16 66 13 6 35 11 48 11 18 0 22 4 18 19 -3 13 2 21 16 26 22 7 29 25 10 25
-6 0 -9 7 -5 15 3 9 0 15 -9 15 -8 0 -15 -4 -15 -9 0 -31 -75 -13 -85 21 -10
29 -32 21 -38 -14 -2 -18 -1 -34 4 -36 13 -5 11 -52 -1 -52 -7 0 -7 -6 0 -19
14 -27 13 -30 -10 -24 -23 6 -28 -15 -8 -35 9 -9 8 -15 -8 -27 -19 -14 -18
-15 6 -35 21 -16 22 -20 7 -20 -11 0 -15 -4 -11 -11 14 -24 14 -67 -1 -73 -8
-3 -15 -16 -15 -30 0 -14 -5 -28 -11 -31 -6 -4 -8 -13 -5 -20 2 -7 2 -16 -2
-20 -4 -4 -7 -19 -7 -33 0 -22 -5 -27 -25 -27 -23 0 -25 4 -23 38 1 20 -2 37
-8 37 -6 0 -8 9 -4 20 4 13 1 22 -9 26 -9 3 -16 15 -16 25 0 12 -7 19 -19 19
-15 0 -23 13 -36 58 -9 31 -18 65 -21 75 -6 19 65 92 100 103 31 10 34 -14 15
-104 -10 -47 -17 -87 -15 -89 14 -15 82 171 87 238 2 19 2 64 1 101 -2 65 -3
68 -29 73 -16 3 -49 12 -74 20 -64 20 -65 20 -93 -22 -30 -47 -56 -147 -56
-216 0 -52 24 -178 54 -294 14 -49 15 -73 7 -124 -6 -35 -9 -65 -6 -67 2 -2
15 19 29 47 15 28 30 51 35 51 16 0 33 -28 21 -35 -16 -10 -12 -22 9 -28 30
-7 44 -42 25 -61 -8 -9 -24 -16 -34 -16 -11 0 -24 -9 -30 -20 -15 -29 -33 -25
-26 5 4 15 2 25 -5 25 -6 0 -13 -9 -16 -19 -5 -20 -29 -35 -42 -26 -5 2 -11
44 -14 92 -4 57 -14 111 -30 154 -24 64 -117 250 -137 274 -6 7 -35 68 -65
136 -52 115 -64 165 -49 204 7 17 74 55 98 55 22 0 27 -14 32 -90 4 -61 3 -70
-12 -70 -12 0 -15 -6 -10 -20 3 -11 9 -29 12 -40 5 -16 2 -20 -15 -20 -25 0
-26 -4 -6 -33 8 -12 14 -31 13 -42 -2 -25 37 -115 50 -115 19 0 20 14 2 54
-15 36 -16 45 -4 61 18 24 18 35 -1 35 -8 0 -15 4 -15 9 0 5 7 14 15 21 9 7
15 29 15 54 0 42 22 87 35 74 4 -4 3 -27 -3 -50 -12 -49 -3 -113 17 -113 8 0
14 17 17 49 3 47 13 70 60 156 10 19 20 36 20 38 1 1 14 -3 29 -10 23 -10 29
-10 40 5 7 9 21 17 31 17 33 1 53 23 47 53 -5 28 -17 35 -28 17 -3 -5 -21 -10
-38 -10 -37 0 -62 -13 -62 -32 0 -7 -8 -12 -16 -10 -9 1 -22 -4 -28 -12 -11
-13 -21 -10 -69 19 -65 38 -73 50 -37 59 26 7 32 25 16 42 -6 5 -12 25 -14 44
-2 19 -10 49 -16 65 -7 17 -15 42 -18 58 -7 33 -21 35 -28 5z m63 -327 c3 -8
-1 -12 -9 -9 -7 2 -15 10 -17 17 -3 8 1 12 9 9 7 -2 15 -10 17 -17z m2 -41 c0
-5 -4 -10 -10 -10 -5 0 -10 5 -10 10 0 6 5 10 10 10 6 0 10 -4 10 -10z m-347
-95 c4 -26 5 -50 2 -53 -9 -10 -24 19 -18 35 3 7 0 13 -6 13 -6 0 -11 14 -11
31 0 48 24 30 33 -26z m607 20 c38 -34 9 -155 -36 -155 -7 0 -26 -12 -43 -26
-17 -14 -35 -23 -41 -19 -23 14 -5 175 24 213 13 18 72 9 96 -13z m-666 -1 c3
-9 6 -35 6 -58 0 -74 28 -132 58 -121 6 2 12 -2 12 -10 0 -8 -5 -15 -11 -15
-6 0 3 -13 19 -30 19 -18 41 -30 57 -30 18 0 29 -6 32 -19 6 -23 43 -36 43
-15 0 8 5 14 11 14 7 0 9 -10 7 -25 -4 -18 -1 -25 10 -25 22 0 52 -30 52 -52
0 -18 -11 -24 -24 -11 -10 11 -49 11 -69 1 -10 -5 -29 -33 -43 -63 -41 -85
-48 -87 -83 -16 -16 33 -27 62 -24 65 3 2 -1 14 -7 26 -6 11 -31 98 -55 192
-32 125 -41 177 -34 190 12 22 35 23 43 2z m86 -133 c0 -10 -6 -21 -13 -24
-10 -4 -13 2 -9 19 5 28 22 32 22 5z m-165 -42 c8 -23 -7 -45 -24 -35 -12 8
-15 39 -4 49 12 12 22 7 28 -14z m30 -119 c0 -7 -6 -15 -12 -17 -8 -3 -13 4
-13 17 0 13 5 20 13 18 6 -3 12 -11 12 -18z m429 -144 c30 -51 66 -175 66
-226 0 -70 -77 -181 -115 -166 -11 4 -15 12 -11 22 4 9 1 23 -5 30 -9 11 -8
19 5 33 14 15 15 24 6 40 -6 12 -15 21 -20 21 -17 0 -11 26 10 45 24 21 26 37
5 29 -19 -8 -19 15 0 40 10 13 12 32 8 62 -4 32 -2 44 7 44 8 0 10 8 6 25 -6
23 -1 45 9 45 2 0 15 -20 29 -44z m-74 4 c0 -5 -4 -10 -9 -10 -6 0 -13 5 -16
10 -3 6 1 10 9 10 9 0 16 -4 16 -10z m-119 -133 c-8 -8 -11 -7 -11 4 0 9 3 19
7 23 4 4 9 2 11 -4 3 -7 -1 -17 -7 -23z m299 -227 c0 -5 -5 -10 -11 -10 -5 0
-7 5 -4 10 3 6 8 10 11 10 2 0 4 -4 4 -10z"/>
</g>
</svg>
